<?xml version="1.0" standalone="no"?>
<!DOCTYPE svg PUBLIC "-//W3C//DTD SVG 20010904//EN"
 "http://www.w3.org/TR/2001/REC-SVG-20010904/DTD/svg10.dtd">
<svg version="1.0" xmlns="http://www.w3.org/2000/svg"
 width="1408.000000pt" height="768.000000pt" viewBox="0 0 1408.000000 768.000000"
 preserveAspectRatio="xMidYMid meet">

<g transform="translate(0.000000,768.000000) scale(0.100000,-0.100000)"
fill="#000000" stroke="none">
<path d="M9093 4745 c-42 -18 -73 -69 -73 -121 0 -73 60 -124 147 -124 91 0
150 62 140 147 -2 24 -13 53 -23 65 -41 46 -128 61 -191 33z"/>
<path d="M9498 4648 c0 -29 -2 -281 -2 -560 l-1 -508 117 0 118 0 0 560 0 560
-115 0 -115 0 -2 -52z"/>
<path d="M3415 4668 c-2 -7 -44 -146 -93 -308 -50 -162 -134 -438 -187 -613
-53 -176 -99 -325 -102 -333 -5 -12 11 -14 92 -12 95 3 99 4 106 28 4 14 90
295 190 625 100 330 184 606 186 613 4 9 -18 12 -91 12 -68 0 -98 -4 -101 -12z"/>
<path d="M2702 4287 l-273 -182 3 -79 3 -78 273 -184 272 -183 0 107 0 107
-175 115 c-96 63 -174 117 -174 120 0 3 77 55 171 115 93 61 172 115 174 121
3 6 3 54 2 107 l-3 96 -273 -182z"/>
<path d="M3657 4368 l1 -103 177 -118 177 -119 -176 -116 -176 -117 0 -106 0
-106 275 184 275 183 0 78 0 78 -274 182 c-151 100 -276 182 -278 182 -2 0 -2
-46 -1 -102z"/>
<path d="M6240 4380 c-30 -11 -71 -34 -92 -50 l-38 -31 0 46 0 45 -115 0 -115
0 2 -406 3 -406 118 -1 117 -2 0 217 c0 245 9 304 51 353 56 64 164 73 220 19
49 -47 53 -77 52 -341 l-1 -242 119 -3 119 -3 0 230 c0 127 5 247 10 267 30
108 156 162 241 105 63 -41 67 -63 74 -347 6 -244 7 -255 26 -254 10 0 62 1
115 2 l95 2 -3 298 -3 297 -28 57 c-51 104 -139 158 -269 166 -103 6 -197 -22
-260 -78 -26 -22 -49 -40 -53 -40 -3 0 -17 13 -30 28 -13 15 -47 41 -75 56
-72 39 -198 47 -280 16z"/>
<path d="M8411 4385 c-74 -21 -149 -63 -177 -100 -58 -77 -70 -169 -31 -245
40 -80 105 -109 346 -153 91 -17 121 -36 121 -77 0 -37 -18 -50 -92 -62 -76
-13 -183 5 -278 48 -33 15 -62 25 -64 23 -7 -8 -76 -162 -74 -164 18 -15 103
-49 164 -66 92 -25 257 -29 347 -9 77 18 154 65 190 116 34 49 47 139 27 198
-31 94 -104 135 -303 171 -151 28 -180 42 -175 88 5 52 50 69 169 64 76 -3
107 -9 154 -31 32 -14 59 -25 61 -24 1 2 19 39 39 83 42 93 43 92 -65 126 -87
28 -282 36 -359 14z"/>
<path d="M11023 4386 c-71 -17 -193 -72 -193 -88 0 -5 17 -42 38 -82 20 -39
37 -72 37 -73 0 -1 27 11 60 28 173 85 335 50 361 -78 l6 -31 -163 -4 c-189
-6 -233 -18 -303 -79 -57 -50 -81 -109 -73 -183 10 -101 57 -160 163 -207 38
-18 68 -22 139 -23 104 0 148 13 210 60 l45 34 0 -43 0 -42 111 3 111 3 -4
287 c-3 277 -4 289 -27 340 -31 69 -111 142 -182 166 -72 25 -252 31 -336 12z
m307 -515 c0 -87 -68 -141 -178 -141 -50 0 -66 4 -90 25 -56 47 -48 114 18
147 27 14 60 18 143 18 l107 0 0 -49z"/>
<path d="M4365 4373 c4 -10 61 -166 127 -348 66 -181 129 -357 141 -390 l22
-60 48 1 c26 1 80 2 120 3 l72 1 85 245 c46 135 86 245 90 245 3 0 25 -60 49
-133 25 -72 63 -183 86 -246 l41 -113 119 0 c107 0 120 2 127 18 15 36 278
782 278 788 0 3 -48 6 -108 6 l-107 0 -89 -257 c-49 -142 -92 -264 -96 -272
-4 -8 -45 97 -100 258 l-93 272 -106 -3 -106 -3 -90 -262 c-49 -145 -92 -263
-95 -263 -3 0 -46 118 -96 263 l-90 262 -118 3 c-110 2 -118 1 -111 -15z"/>
<path d="M9048 4293 c-2 -54 -2 -236 0 -405 l3 -308 117 0 117 0 -3 405 -2
405 -115 0 -114 0 -3 -97z"/>
<path d="M9840 4386 c0 -4 200 -485 284 -681 l55 -130 123 2 123 3 17 37 c10
21 50 115 89 208 39 94 106 254 150 356 43 103 79 192 79 198 0 7 -37 11 -112
11 l-113 0 -109 -263 c-60 -144 -112 -266 -116 -270 -4 -4 -56 113 -117 260
l-110 268 -122 3 c-66 1 -121 1 -121 -2z"/>
<path d="M7357 3573 c-4 -3 -7 -39 -7 -80 l0 -73 378 0 378 0 0 80 0 80 -371
0 c-204 0 -375 -3 -378 -7z"/>
</g>
</svg>
